<svg width="60" height="57" viewBox="0 0 60 57" fill="none" xmlns="http://www.w3.org/2000/svg">
<path d="M0 0V52.5H18.75V56.25H48.75V52.5H60V0H0ZM45 52.5H22.5V41.25H27.2625C26.625 42.3563 26.25 43.6313 26.25 45C26.25 49.1438 29.6062 52.5 33.75 52.5C37.8937 52.5 41.25 49.1438 41.25 45C41.25 43.6313 40.875 42.3563 40.2375 41.25H45V52.5ZM30 45C30 42.9375 31.6875 41.25 33.75 41.25C35.8125 41.25 37.5 42.9375 37.5 45C37.5 47.0625 35.8125 48.75 33.75 48.75C31.6875 48.75 30 47.0625 30 45ZM56.25 48.75H48.75V41.25H52.5V37.5H15V41.25H18.75V48.75H3.75V3.75H56.25V48.75Z" fill="#B44160"/>
<path d="M7.5 7.5V33.75H37.5V7.5H7.5ZM33.75 30H11.25V11.25H33.75V30Z" fill="#B44160"/>
<path d="M52.5 11.25H41.25V15H52.5V11.25Z" fill="#B44160"/>
<path d="M52.5 18.75H41.25V22.5H52.5V18.75Z" fill="#B44160"/>
<path d="M52.5 26.25H41.25V30H52.5V26.25Z" fill="#B44160"/>
</svg>
